<svg width="99.99999999999999" height="99.99999999999999" xmlns="http://www.w3.org/2000/svg">
 <g id="Layer_1">
  <title>Layer 1</title>
  <path stroke-width="6" d="m14.28592,39.5919c0,-0.81632 2.48887,-3.67808 6.12241,-8.16322c6.12874,-7.56514 9.31162,-12.70179 11.4285,-15.91828c3.5479,-5.39085 3.67345,-6.12241 3.67345,-4.48977c0,1.22448 0.24044,11.02579 0,16.32644c-0.61287,13.51096 -3.97761,23.22723 -4.48977,28.57126c-1.01316,10.57159 -0.40816,15.10195 -0.40816,18.36724l0,0.40816" id="svg_20" stroke="#C2410C" stroke-linecap="round" stroke-linejoin="round" fill="none"/>
  <path stroke-width="6" d="m64.31373,9.41176c-0.78432,0 -1.14031,-0.1946 -2.7451,-0.39216c-1.16765,-0.14374 -1.56863,0 -1.96078,0c-1.17647,0 -1.9959,-0.05027 -3.13726,0.78431c-2.02695,1.48214 -3.09746,2.77575 -4.31372,4.31373c-1.89987,2.4024 -2.86223,3.06709 -3.52941,4.31373c-0.18504,0.34575 -0.752,0.93603 -1.17647,1.96078c-0.15007,0.3623 -0.39216,1.56863 -0.39216,1.96078c0,0.39216 -0.03176,2.00274 -0.39215,3.52941c-0.40294,1.70686 -0.78431,3.13725 -0.78431,5.88235c0,1.56863 0,3.92157 0,4.31372c0,0.78431 -0.39216,2.7451 -0.39216,5.4902c0,1.96078 0,3.52941 0,5.4902c0,2.35294 -0.05991,3.93777 0.39216,5.4902c0.34672,1.19065 0.51402,2.38441 0.78431,3.52941c0.20147,0.85343 0.16555,1.25127 0.78431,2.7451c0.87506,2.11259 1.85717,3.22957 4.31372,5.88235c1.13046,1.22076 1.31438,2.50098 5.4902,4.70589c1.42982,0.75497 3.39117,1.16569 5.09804,1.56863c0.76333,0.1802 1.05625,0.57208 1.56863,0.78432c0.72461,0.30014 1.17647,0 1.56863,0c0.39216,0 1.56863,0 1.96078,0c0.39216,0 1.23404,-0.33853 1.96078,-1.17648c2.56942,-2.96256 2.68672,-4.11189 3.52941,-5.88235c0.6949,-1.45996 2.00623,-4.6917 2.35294,-5.88235c0.90413,-3.10484 1.58929,-6.66164 1.96078,-8.23529c0.83067,-3.51879 0.53937,-5.14435 1.17647,-7.84314c0.28492,-1.20694 1.17647,-12.15686 1.17647,-13.33333c0,-2.35294 0,-3.52941 0,-4.70588c0,-0.39216 0.23077,-2.11922 -1.17647,-3.92157c-0.3413,-0.43713 -0.23947,-1.63109 -0.78432,-2.7451c-0.62122,-1.27016 -1.11871,-2.42082 -1.56863,-2.7451c-0.71136,-0.51272 -1.26602,-0.72626 -2.35294,-1.17647c-1.02476,-0.42447 -1.44841,-0.96424 -1.96078,-1.17647c-0.72461,-0.30015 -0.82271,-0.32331 -1.56863,-0.78431c-0.66718,-0.41234 -0.78431,-0.39216 -1.17647,-0.39216c-0.39216,0 -0.78431,0 -1.17647,0c-0.39216,0 -0.78432,-0.39216 -1.17648,-0.39216c-0.39215,0 -0.27193,-0.57208 -0.78431,-0.78431c-1.08692,-0.45022 -1.17648,-0.39216 -1.56863,-0.78431l-0.39216,-0.39216" id="svg_44" stroke="#C2410C" stroke-linecap="round" stroke-linejoin="round" fill="none"/>
  <path stroke-width="6" d="m12.54902,90.98039c0.39216,0 0.82372,0.46346 3.52941,0c6.96822,-1.1936 9.03475,-2.17911 23.52941,-3.52941c7.45985,-0.69495 22.17873,0.95717 35.29412,-1.56863c2.43547,-0.46903 12.94118,-3.13725 14.90196,-3.52941l1.56863,-0.78432l0.78431,-0.39216l0.39216,0" id="svg_49" stroke="#C2410C" stroke-linecap="round" stroke-linejoin="round" fill="none"/>
  <path d="m61.83033,8.6188c0,0.21316 0.21316,0.42632 0.42632,0.42632c0.21316,0 0.42632,0.21316 0.63948,0.21316c0.42632,0 0.57413,0.0978 0.85263,0.21316c0.39386,0.16315 0.60191,0.31681 1.0658,0.42632c0.20746,0.04897 0.27559,0.06243 0.42632,0.21316c0.15073,0.15073 0.63948,0 0.85264,0.21316l0.21316,0l0.21316,0.21316" id="svg_50" stroke="#C2410C" stroke-linecap="round" stroke-linejoin="round" fill="none"/>
  <path d="m66.06165,7.5454c-0.08826,0 -0.26478,0 -0.4413,0c-0.08826,0 -0.35976,-0.05448 -0.4413,-0.08826c-0.11532,-0.04777 -0.14946,-0.21701 -0.26478,-0.26478c-0.08154,-0.03377 -0.20237,-0.02585 -0.26478,-0.08826c-0.06241,-0.06241 -0.17652,-0.08826 -0.26478,-0.08826c-0.08826,0 -0.18996,-0.02071 -0.35304,-0.08826c-0.11531,-0.04777 0.07206,-0.23173 0.70608,0.17652c0.20989,0.13515 0.28494,0.16345 0.52956,0.26478c0.11532,0.04777 0.0969,0.16102 0.26478,0.26478c0.07507,0.0464 0,0 -0.35304,0c-0.08826,0 -0.28493,0.10133 -0.52956,0c-0.11532,-0.04777 -0.23772,-0.12875 -0.35303,-0.17652c-0.08154,-0.03378 0.00468,-0.06408 0.44129,0c0.91169,0.13381 0.97086,0.26478 1.05912,0.35304c0.08826,0.08826 0.0741,0.29819 -0.4413,0.17652c-0.19208,-0.04534 -0.26478,-0.08826 -0.4413,-0.08826c-0.17652,0 -0.26478,-0.08826 -0.4413,-0.08826c-0.08826,0 0.00672,-0.03378 0.08826,0c0.34595,0.1433 0.35303,0.26478 0.35303,0.35304c0,0.08826 -0.17652,0.08826 -0.26478,0.08826c-0.17652,0 -0.35303,-0.08826 -0.35303,0c0,0.08826 0.52956,0.4413 0.52956,0.35304c0,-0.08826 -0.17652,0 -0.35304,0c-0.08826,0 -0.17651,0 -0.26478,0l0,0.08826l0,0.08826l0,0.08826" id="svg_63" stroke="#C2410C" stroke-linecap="round" stroke-linejoin="round" fill="none"/>
 </g>
</svg>
